<svg xmlns="http://www.w3.org/2000/svg" xmlns:xlink="http://www.w3.org/1999/xlink" viewBox="0,0,256,256" width="76px" height="76px"><g fill="none" fill-rule="nonzero" stroke="none" stroke-width="1" stroke-linecap="butt" stroke-linejoin="miter" stroke-miterlimit="10" stroke-dasharray="" stroke-dashoffset="0" font-family="none" font-weight="none" font-size="none" text-anchor="none" style="mix-blend-mode: normal"><g transform="scale(6.4,6.4)"><path d="M9.5,19.5c-4.962,0 -9,-4.038 -9,-9c0,-4.879 3.903,-8.865 8.751,-8.997c-2.282,1.308 -3.751,3.748 -3.751,6.497c0,4.136 3.364,7.5 7.5,7.5c1.841,0 3.575,-0.666 4.92,-1.842c-1.29,3.438 -4.617,5.842 -8.42,5.842z" fill="#ffeea3"></path><path d="M7.422,2.257c-1.511,1.463 -2.422,3.508 -2.422,5.743c0,4.411 3.589,8 8,8c1.28,0 2.511,-0.301 3.611,-0.859c-1.529,2.336 -4.169,3.859 -7.111,3.859c-4.687,0 -8.5,-3.813 -8.5,-8.5c0,-3.97 2.737,-7.314 6.422,-8.243M9.5,1c-5.247,0 -9.5,4.253 -9.5,9.5c0,5.247 4.253,9.5 9.5,9.5c4.825,0 8.801,-3.601 9.41,-8.26c-1.241,1.957 -3.421,3.26 -5.91,3.26c-3.866,0 -7,-3.134 -7,-7c0,-3.315 2.306,-6.085 5.4,-6.809c-0.614,-0.125 -1.249,-0.191 -1.9,-0.191z" fill="#f5c276"></path><path d="M31.883,8.201l-1.815,-0.605l1.815,-0.604l0.604,-1.815l0.605,1.815l1.814,0.604l-1.814,0.605l-0.605,1.814z" fill="#ffeea3"></path><path d="M32.488,6.758l0.051,0.154l0.158,0.474l0.474,0.158l0.154,0.051l-0.154,0.051l-0.474,0.158l-0.158,0.476l-0.051,0.154l-0.052,-0.154l-0.158,-0.474l-0.474,-0.158l-0.154,-0.052l0.154,-0.051l0.474,-0.158l0.158,-0.474l0.052,-0.155M32.488,3.596l-1,3l-3,1l3,1l1,3l1,-3l3,-1l-3,-1l-1,-3z" fill="#f5c276"></path><path d="M24.258,4.73l-0.689,-0.23l0.689,-0.229l0.23,-0.69l0.229,0.69l0.69,0.229l-0.69,0.23l-0.229,0.689z" fill="#ffeea3"></path><path d="M24.488,2l-0.625,1.875l-1.875,0.625l1.875,0.625l0.625,1.875l0.625,-1.875l1.875,-0.625l-1.875,-0.625z" fill="#f5c276"></path><g fill="#f0f9ff"><path d="M7,35.5c-3.584,0 -6.5,-2.916 -6.5,-6.5c0,-2.497 1.464,-4.802 3.73,-5.873l0.272,-0.128l0.014,-0.301c0.16,-3.476 3.008,-6.198 6.484,-6.198c0.298,0 0.61,0.026 0.981,0.082l0.513,0.078l0.059,-0.515c0.43,-3.789 3.632,-6.645 7.447,-6.645c2.697,0 5.2,1.464 6.531,3.82l0.166,0.293l0.334,-0.043c0.318,-0.042 0.64,-0.07 0.969,-0.07c4.136,0 7.5,3.364 7.5,7.5v0.289l0.246,0.221c2.316,1.339 3.754,3.826 3.754,6.49c0,4.136 -3.364,7.5 -7.5,7.5z"></path><path d="M20,10c2.517,0 4.853,1.366 6.095,3.566l0.331,0.586l0.668,-0.086c0.349,-0.045 0.636,-0.066 0.906,-0.066c3.86,0 7,3.14 7.001,6.967l-0.004,0.069v0.032l-0.006,0.583l0.505,0.292c2.161,1.25 3.504,3.571 3.504,6.057c0,3.86 -3.14,7 -7,7h-25c-3.308,0 -6,-2.692 -6,-6c0,-2.304 1.352,-4.432 3.444,-5.421l0.544,-0.257l0.028,-0.601c0.147,-3.208 2.776,-5.721 5.984,-5.721c0.273,0 0.561,0.024 0.906,0.077l1.026,0.156l0.117,-1.031c0.402,-3.536 3.39,-6.202 6.951,-6.202M20,9c-4.109,0 -7.491,3.1 -7.944,7.088c-0.346,-0.052 -0.696,-0.088 -1.056,-0.088c-3.756,0 -6.813,2.961 -6.984,6.675c-2.371,1.121 -4.016,3.528 -4.016,6.325c0,3.866 3.134,7 7,7h25c4.418,0 8,-3.582 8,-8c0,-2.961 -1.613,-5.54 -4.004,-6.923c0,-0.026 0.004,-0.051 0.004,-0.077c0,-4.418 -3.582,-8 -8,-8c-0.351,0 -0.695,0.03 -1.034,0.074c-1.373,-2.43 -3.976,-4.074 -6.966,-4.074z"></path></g><path d="M20,10c-3.561,0 -6.549,2.666 -6.951,6.201l-0.117,1.031l-1.026,-0.156c-0.345,-0.052 -0.633,-0.076 -0.906,-0.076c-3.208,0 -5.837,2.513 -5.985,5.721l-0.028,0.601l-0.544,0.257c-2.091,0.989 -3.443,3.117 -3.443,5.421h1c0,-1.92 1.127,-3.693 2.871,-4.517l0.544,-0.257l0.544,-0.257l0.028,-0.601l0.028,-0.601c0.122,-2.673 2.312,-4.767 4.985,-4.767c0.222,0 0.462,0.021 0.756,0.065l1.026,0.156l1.026,0.156l0.117,-1.031l0.117,-1.031c0.345,-3.031 2.906,-5.315 5.958,-5.315z" fill="#f0f9ff"></path></g></g></svg>