<svg xmlns="http://www.w3.org/2000/svg"  viewBox="0 0 40 40" width="76px" height="76px" fill="#b6dcfe"><path fill="#b6dcfe" d="M20,37.5c-5.79,0-10.5-4.71-10.5-10.5c0-5.194,8.47-20.42,10.5-23.994 C22.03,6.58,30.5,21.806,30.5,27C30.5,32.79,25.79,37.5,20,37.5z"/><path fill="#4788c7" d="M20,4.014C23.431,10.096,30,22.641,30,27c0,5.514-4.486,10-10,10s-10-4.486-10-10 C10,22.642,16.57,10.096,20,4.014 M20,2C20,2,9,20.925,9,27s4.925,11,11,11s11-4.925,11-11S20,2,20,2L20,2z"/><path fill="none" stroke="#fff" stroke-linecap="round" stroke-miterlimit="10" stroke-width="2" d="M26,27c0,3.314-2.686,6-6,6"/></svg>