<svg xmlns="http://www.w3.org/2000/svg"  viewBox="0 0 500 500" width="100px" height="100px"><path d="M290.036,214.883c.767,3.956,5.059,21.579,21.706,29.608A3.75,3.75,0,1,0,315,237.736c-14.9-7.307-17.611-24.445-17.709-24.886-1.562-11.566,3.953-21.1,11.449-34.919.109.166.2.346.315.509-.752,27-.717,50.116,31.594,58.3,1.236-.081,5.257-.633,11.888-3.7.135,6.685,1.342,16.509-3.216,21.281-6.616-7.423-20.026-3.723-21.772,6.221-18.688-1.825-28.649,4.059-33.307,17.223-17.8-15-8.4-50.348-7.417-50.5a3.753,3.753,0,0,0-2.153-4.844c-5.411-1.639-5.966,5.251-7.906,13.93-4.183-29.168-8.976-58.475-31.34-57.323-21.942,2.376-35.7,28.5-14.326,61.939,10.473,16.641,31.1,31.824,61.3,45.144-2.211,10.659-5.081,22.194-8.545,34.39a12.819,12.819,0,0,0-7.757,1.936c-15.99-10.634-19.3-27.605-19.438-29.692a3.747,3.747,0,0,0-4.168-3.27c-5.283,1.346-3.134,5.929-.993,13.124a124.351,124.351,0,0,1-16.644-20.476c-61.163-83.726-112.3,29.408,9.877,40.086-2,.939-3.413,1.725-3.838,1.967-4.252,2.515-.6,8.879,3.7,6.523,4.519-2.558,13.283-6.239,17.649-5.25l9.01,2.522c-.317.319-4.407,14.156-4.69,15.011a12.839,12.839,0,0,0,5.634,14.677c-1.709,5.031-3.4,9.891-5.049,14.529-6.973-.889-26.678-5.717-30.64-13.24-9.8-14.752-20.7-19.327-21.159-19.514a3.75,3.75,0,0,0-2.854,6.935c.078.034,6.891,3,14.152,11.85-18.832-9.582-42.375-25.565-59.374-22.876-14.775,1.435-23.566,18.98-16.539,31.9,19.588,38.392,72.548,22.785,113.018,14.4-5.556,16.663-18.94,41.716-2.974,54.7,9.11,7.265,21.4,1.71,31.418.6a13.619,13.619,0,0,0,12.9,10.251l15.182.28c8.239.026,13.389-5.48,15.744-12.962,2.772-3.851,7.751-4.035,11.532-2.474,10.7,4.423,23.876,12.292,33.05,18.119,14.649,26.781,45.265,42.964,73.047,41.958,18.7-.39,40.361-3.791,40.082-7.389,7.659-35.453-18.447-107.074-35.336-131.119-15.391-21.913-14.809-56.572-14.8-56.92-.48-5.159-.3-12.608-1.241-17.453a24.466,24.466,0,0,0-24.027-19.556,54.218,54.218,0,0,1-9.359-.708,3.988,3.988,0,0,0-.311-.327l-4.694-4.277a11.414,11.414,0,0,0-15.708.391,16.32,16.32,0,0,1-4.756-11.669V210.66a16.778,16.778,0,0,0,6.23-6.9c11.979-6.278,29.237-18.866,32.1-40.1,32.149,5.453,56.249-31.416,38.584-58.589-15.26-24.957-53.2-23.734-66.77,2.38a61.916,61.916,0,0,0-15.087-6.794,15.275,15.275,0,0,0-7.317-5.343c-7.228-2.465-17.513-6.685-25.463-12.78a13.313,13.313,0,0,0-18.515,2.278,90.129,90.129,0,0,1-17.984,17.272,15.679,15.679,0,0,0-6.314,13.8c-33.731-18.378-49.724,28.673-30.591,65.132A356.933,356.933,0,0,0,290.036,214.883Zm-32.905,22.44a3.775,3.775,0,0,1-6.084,1.694c-13.165-11.151-27.125-34.807-7.99-41.327C266.3,193.115,258.638,235.3,257.131,237.323Zm-38.707,60.409c-18.132-.2-26.293-9.3-29.946-16.9-3.467-6.58,3.647-14.791,10.632-11.954,15.849,5.741,22.583,23.038,22.861,23.772A3.776,3.776,0,0,1,218.424,297.732ZM192.9,376.075c-13.154.069-28.256-9.494-23.536-19.365a8.511,8.511,0,0,1,8.262-4.744c16.813,1.227,27.985,16.05,28.453,16.68C210.172,375.99,196.475,375.81,192.9,376.075ZM315.175,158.546a22.708,22.708,0,0,0-3.867,5.572c-1.956-8.727.328-21.946,4.977-31.323a59.532,59.532,0,0,1,8.214-.86,36.425,36.425,0,0,0-5,23.23A22.087,22.087,0,0,0,315.175,158.546Zm20.408,101.777c2.237-3.793,8.4-3,9.533,1.292,2.589,8.771,7.816,20.353,18.126,27.857-2.049,2-4.1,3.875-6.116,5.621-7.512-5.666-18.723-16.249-22.2-30.911A5.018,5.018,0,0,1,335.583,260.323Zm-34.7,21.645c.29-1.484,3.19-14.165,17.435-14.165,3.438.109,7.079.289,9.872.234,4.251,14.853,15.034,25.668,22.99,31.943A136.914,136.914,0,0,1,332.9,312.121l-5.281.95a33.4,33.4,0,0,0,3.528-13.254,3.75,3.75,0,1,0-7.479-.571c-.62,8.131-3.294,12.419-7.706,17.066a43.8,43.8,0,0,0-14.107,9.312l-10.733-3.255C295.233,307.887,298.52,294.3,300.881,281.968Zm-27.137,63.19,4.083-13.439a5.316,5.316,0,0,1,6.62-3.537l12.407,3.762c-3.835,5.919-6.25,15.339-5.039,24.045L277.347,351.8A5.334,5.334,0,0,1,273.744,345.158Zm18.633,84.14c-5.9,1.036-12.05,2.1-18.411,3.187-28.536.809-2.18-46.774,1.59-61.572l20.8,11.327c-2.986,8.75-5.292,15.4-6.872,19.8a3.75,3.75,0,0,0,3.663,5.013,122.367,122.367,0,0,1,12.923.255C297.483,412.88,293.734,419.217,292.377,429.3Zm5.967-29.807c2.094-5.983,4.922-14.232,8.443-24.627a40.866,40.866,0,0,0,10.359,2.769c.587,4.035,1.672,11.884,2.512,20.205a28.326,28.326,0,0,0-4.451,2.812A153.114,153.114,0,0,0,298.344,399.491Zm52.078,25.616c-8.118-3.356-17.172-.889-21.187,6.2-1.574,4.377-3.374,8.716-8.814,8.667L305.24,439.7c-7.861-.957-5.859-7.638-4.713-13.106a17.722,17.722,0,0,1,6.992-11.049l12.944-9.44a17.736,17.736,0,0,1,14.982-2.837c10.706,2.794,24.161,5.874,29.44,7.067a162.1,162.1,0,0,0,9.076,26.954A197.883,197.883,0,0,0,350.422,425.107ZM408.361,266.48c46.163-2.033,13.892,38.493,40.418,85.48l-.014-.016s21.2,47.6,23.428,91.447a27.276,27.276,0,0,1-32.407,28.142c-23.587-4.615-54.38-18.878-67.033-60.664,15.467,1.247,57.156,2.94,77.123,29.318a3.75,3.75,0,0,0,5.19,1.087c7.79-5.473-15.553-20.909-19.079-22.757a45.959,45.959,0,0,1,14.464,1.892,3.75,3.75,0,1,0,2.1-7.2,50.858,50.858,0,0,0-24.088-1.386c.655-11.481,1.608-39.305-2.547-63.686a45.036,45.036,0,0,0-9.522-20.894,40.966,40.966,0,0,1-7.823-15.912c-1.407-4.715-8.474-2.749-7.221,2.027a51.69,51.69,0,0,0,6.295,14.608l-.019-.015s9.082,20.142-7.757,29.89-26,5.33-26,5.33a31.025,31.025,0,0,0-5.946-2.794,5.1,5.1,0,0,0-6.421,6.687c2.85,7.092,12.124,21.092,8.3,37.468-6.41-1.469-23.8-6.267-32.464-8.528a25.3,25.3,0,0,0-10.381-.5c-.761-7.234-1.672-13.95-2.249-17.978,4.255-.839,11.02-3.207,18.023-9.842,3.54-3.391-1.579-8.8-5.158-5.444-8.576,8.125-16.163,8.248-16.921,8.242-14.15-1.209-21.43-7.3-21.632-18.1.717-30.512,29.443-31.329,35.554-32.934C376.922,316.682,396.884,293.227,408.361,266.48Zm-6.118,140.46a146.271,146.271,0,0,1,3.381-30.82,26.537,26.537,0,0,0,14.938-10.153,349.693,349.693,0,0,1,.384,45.85C414.177,409.721,407.918,408.138,402.243,406.94ZM384.4,261.377a103.443,103.443,0,0,1-15.884,22.645c-8.5-5.757-13.145-15.1-15.632-22.7,5.335-4.076,6.991-10.914,7.335-18.058a37.933,37.933,0,0,0,15.787-12.477C376.019,242.277,374.5,253.251,384.4,261.377Zm-.054-65.994c-.483,9.779-9.8,11.5-14.5,10.849a3.751,3.751,0,0,0-4.01,2.337c-6.4,16.214-21.543,19.941-24.987,20.588-15.227-3.6-25.854-17.492-24.248-33.483,3.16.315,7.636,1.678,8.379-2.829.3-4.847-5.04-4.2-8.268-4.707,0-5.155-.131-9.718-.278-13.121-.676-9.331,7.933-16.563,16.831-16.356a16.915,16.915,0,0,1,16.6,13.3c4.5,17.531,19.51,25.122,22.268,23.087,3.744-2.271,1.4-9.585,8.06-9.147C384.333,186.17,384.848,191.045,384.345,195.383Zm64.022-93.067a31.348,31.348,0,0,1,5.007,5.673c-2.015,8.611-5.479,14.678-9.507,18.948a22.3,22.3,0,0,1-24.522-4.793,61.709,61.709,0,0,0-4.782-4.332C419.285,110.5,429.218,100.867,448.367,102.316Zm-20.632-7.861a31.066,31.066,0,0,1,7.848,1,40.713,40.713,0,0,0-27.038,18.075,44.386,44.386,0,0,0-7.583-3.757A31.1,31.1,0,0,1,427.735,94.455ZM402.872,138.2c2.357,8.261,2.6,17.723-2.4,27.087a39.353,39.353,0,0,1-22.242,13.153,12.04,12.04,0,0,0-10,7.817c-3.9-2.294-9.941-9.1-11.493-17.6C375.217,165.894,391.075,158.82,402.872,138.2Zm-16.96-12.7a77.5,77.5,0,0,0,.854-13.36c.457.244.9.5,1.354.753a69.561,69.561,0,0,1,11.153,16.117c-12.909,29.058-38.786,32.141-46.042,32.417a23.629,23.629,0,0,0-5.146-5.338c.082-2.8-.168-6.815,2.629-12.326,2.156-4.433-4.38-7.752-6.687-3.395-2.5,4.932-2.755,8.217-3.177,11.969a25.453,25.453,0,0,0-14.062-.326,28.452,28.452,0,0,1,6.976-20.088,137.119,137.119,0,0,1,36.122,6.688S383.909,140.152,385.912,125.5ZM310.519,113.91a7.6,7.6,0,0,1,3.146-5.741,97.754,97.754,0,0,0,19.5-18.729,5.718,5.718,0,0,1,8.051-.956c25.833,19.4,36.117,6.493,32.023,32.065a4.618,4.618,0,0,1-5.42,3.756c-4.414-1.461-14.266.417-13.643-6.3.3-3.989,1.94-4.863,4.853-3.679,4.486,2.029,7.626-4.6,3.2-6.782-9.015-4.27-17.8,3.057-15.056,14.745a138.878,138.878,0,0,0-15.1.524,10.34,10.34,0,0,0-5.577-13.1c-4.291-2.431-13.587,1.778-9.5,7.153a3.751,3.751,0,0,0,5.3.112c1.338-1.336,2.91.688,2.9,2.035.025,3.58-4.694,5.282-8.653,6.082C309.3,127.538,310.452,118.444,310.519,113.91Zm-20.535,20.8a9.332,9.332,0,0,1,8.76,7.195v0a23.309,23.309,0,0,1-1.289,14.25l-4.779,11.611a3.441,3.441,0,0,1-6.371-.121c-.019-.052-1.967-5.347-5.558-14.8C277.711,145.7,280.592,134.208,289.984,134.711Z"/><path d="M66.093,330.177a81.793,81.793,0,0,1-21.635-1.405c-4.781-1.091-6.562,6.032-1.778,7.286a82.062,82.062,0,0,0,17.973,1.8,92.473,92.473,0,0,0,19.434-2.034,35.44,35.44,0,0,1,10.862-.579c22.813,3.73,33.648,2.177,51.561,5.28,4.456.028,5.115-6.7.622-7.448l-8.623-1.462c-2.2-.7-24.446-8.166-41.658-27.806-10.758-14.233-7.867-34.54-7.817-34.875.678-4.864-6.573-6.014-7.412-1.146a63.587,63.587,0,0,0-.169,14.738c-10.607-11.552-9.774-36.975-9.213-36.6.515-4.89-6.761-5.8-7.446-.91a69.258,69.258,0,0,0,.309,16.038C48.658,245.4,29.917,227.871,13.324,243.186h0C-12.467,267.9,25.393,318.324,66.093,330.177Zm-37.747-67.3a9.831,9.831,0,0,1,11.288-.509c17.4,10.943,18.678,28.4,16.925,36.1a3.773,3.773,0,0,1-4.894,2.708C34.671,296.428,16.573,271.817,28.346,262.881Z"/><path d="M222.208,335.622a3.792,3.792,0,1,0,0-7.5c-11.566,0-22.642-5.384-23.73-5.928-1.607-.988-23.013-14.453-45.056-43.048-20.711-26.868-33.47-36.511-45.526-34.4a18.579,18.579,0,0,0-13.955,12.21c-16.758,44.665,58.911,69.656,91.7,72.377C198.5,329.841,208.931,335.465,222.208,335.622Zm-83.114-40.617a3.757,3.757,0,0,1-3.987,1.873c-15.552-2.968-23.14-12.756-26.767-20.443h0c-3.742-7.24,4.547-15.694,11.869-12.145C141.027,274.105,140.062,292,139.094,295.005Z"/><path d="M89.008,212.339C68.374,206.5,59.425,197.75,59.269,197.6a3.75,3.75,0,0,0-5.353,5.252c.482.494,12.151,12.182,39.737,18.409a53.575,53.575,0,0,1,15.435,6.074c18.908,13.14,39.168,25.351,40.306,26.036a3.75,3.75,0,0,0,4.814-5.614c-.145-.175-14.671-17.657-23.359-31.309a227.868,227.868,0,0,1-14.161-25.322c-8.8-21.409-3.911-50.194-3.855-50.511a3.75,3.75,0,0,0-7.387-1.3,123.364,123.364,0,0,0-1.5,16.34S97.63,121.016,75.11,108.277A29.511,29.511,0,0,0,42.177,112.7C13.677,140.831,54.612,183.41,89.008,212.339ZM54.7,142.223h0c-2.025-8.732,8.738-15.461,15.716-9.847,16.337,12.468,16.04,29.972,13.6,37.485a3.774,3.774,0,0,1-5.119,2.256C62.434,164.632,56.652,151.729,54.7,142.223Z"/><path d="M136.88,127.017c1.625,3.847,7.552,2.35,7.184-1.79,0-.064-.254-3.893,1.112-12.9,4.229-27.054,24.218-44.393,24.421-44.566a3.75,3.75,0,0,0-4.855-5.716,77.847,77.847,0,0,0-10.42,11.4c5.8-22.922,15.071-44.984-5.445-60.255C133.1,1.318,108.463,10.343,103.518,29.16c-8.537,25.491,7.476,59.005,25.558,84.565C132.465,118.781,134.915,122.434,136.88,127.017Zm-9.358-50.08c-11.038-13.748-11.343-44.38,3.4-44.715a9.87,9.87,0,0,1,9.465,6.172c7.959,17.464-2.079,39.3-10.237,40.114A3.75,3.75,0,0,1,127.522,76.937Z"/><path d="M94.683,423.82c-4.664-1.44-6.987,5.466-2.363,7.117,9.477,1.917,18.1.478,32.988-7.549a39.075,39.075,0,0,1,15.313-4.975,233.8,233.8,0,0,0,33.608-3.862c9.807,1.592,24.157,1.424,34.229-6.261,3.864-3.055-.583-8.887-4.552-5.96-18.025,11.586-36.733,3.03-58.654-5.477,0,0-22.116-13.109-33.362-22.883-14.31-12.88-24.139-20.151-29.864-23.982a21.534,21.534,0,0,0-25.445.768c-11.84,10.863-10.253,27.214,3.867,44.1,13.741,16.027,36.833,21.883,58.707,23.352C103.772,426.307,94.951,423.9,94.683,423.82Zm.843-28.027c-17.942-1.553-26.148-10-29.872-16.813-5.339-9.459,6.105-20.012,15.143-14.091,12.708,8.037,18.386,25.288,18.621,26.018A3.777,3.777,0,0,1,95.526,395.793Z"/><path d="M193.305,469.818c-4.088,2.628-.009,9,4.088,6.288a65.044,65.044,0,0,0,22.993-26.272,62.019,62.019,0,0,1,7.6-12.03c10.839-10.366,15.07-18.71,15.38-19.34a3.75,3.75,0,0,0-4.905-5.073c-28.775,12.959-37.219,12.21-52.541,10.853-11.068-1-32.781-3.3-42.926,4.465-13.32,8.263-13.143,30.319.573,38.088,20.268,11.656,50.2-4.791,67.594-15.64A56.967,56.967,0,0,1,193.305,469.818ZM184.664,445.9c-1.769,2.356-19.257,17.149-30.639,9.381h0c-7.278-4.094-5.976-15.042,1.944-17.574C158.784,435.443,192.223,436,184.664,445.9Z"/><path d="M206.5,177.674a46.357,46.357,0,0,0-3.622,8.875c-5.195-22.51-13.134-50.083-37.345-51.806a27.769,27.769,0,0,0-22.908,9.776c-28.093,37.52,40.948,97.3,72.774,106.8,2.859,3.921,14.088,18.222,30.661,25.507a3.75,3.75,0,0,0,3.018-6.867c-29-15.373-31.945-30.018-39.4-51.962a51.985,51.985,0,0,1,3.334-36.6C215.379,177.077,209.021,173.445,206.5,177.674Zm-25.554,18.439a3.772,3.772,0,0,1-5.368,1.573c-15.353-9.553-19.416-23.1-20.122-32.775a9.9,9.9,0,0,1,16.86-7.728C186.9,171.662,184.34,188.979,180.948,196.113Z"/><path d="M194.971,140.1c22.9,12.751,24.821,17.8,29.362,28.969,1.434,4.174,7.815,2.7,7.266-1.675-.015-.127-.88-7.96.621-22.323,1.562-11.27,10.466-21.259,10.579-21.385,18.612-20.935,18.1-40.126,18.071-40.933a3.75,3.75,0,0,0-7.5.269c.286-.106-.6,19.134-16.893,36.508,8.5-30.094,15.819-74.043-18.372-77.829a25.048,25.048,0,0,0-21.933,10.53c-17.983,23.242-5.781,65.8,9.032,84.941-2.1-1.254-4.377-2.516-6.861-3.769-14.666-7.4-14.772-22.535-14.768-23.22a3.75,3.75,0,0,0-7.5-.093C176.068,110.918,176.013,130.535,194.971,140.1ZM206.3,72.791c2.687-8.561,15.39-8.864,18.54-.5,7.746,19.036-1.4,33.965-7.313,39.2a3.773,3.773,0,0,1-5.555-.655C201.585,96.024,203.154,81.972,206.3,72.791Z"/><path d="M341.336,187.13l-5.8,1.443c-4.782,1.28-2.964,8.4,1.81,7.278l5.8-1.442C347.91,193.139,346.137,186.019,341.336,187.13Z"/><path d="M106.571,123.61c.092,5.379,8.094,5.378,8.185,0C114.665,118.23,106.662,118.231,106.571,123.61Z"/><path d="M80.149,249.512c.092,5.38,8.094,5.379,8.185,0C88.242,244.133,80.24,244.133,80.149,249.512Z"/><path d="M73.767,424.821c.091,5.379,8.094,5.378,8.185,0C81.86,419.441,73.858,419.442,73.767,424.821Z"/><path d="M131.409,46.729c-5.38.092-5.379,8.094,0,8.185C136.788,54.822,136.787,46.82,131.409,46.729Z"/><path d="M68.98,144.107c-5.379.092-5.379,8.094,0,8.185C74.36,152.2,74.359,144.2,68.98,144.107Z"/><path d="M170.918,177.233c5.379-.091,5.378-8.094,0-8.185C165.538,169.14,165.539,177.142,170.918,177.233Z"/><path d="M215.877,89.3c5.379-.092,5.378-8.094,0-8.185C210.5,81.211,210.5,89.213,215.877,89.3Z"/><path d="M246.608,208.941c-5.379.092-5.378,8.094,0,8.185C251.988,217.034,251.987,209.032,246.608,208.941Z"/><path d="M289.458,152.119c5.379-.091,5.378-8.094,0-8.185C284.078,144.026,284.079,152.028,289.458,152.119Z"/><path d="M121.739,273.049c-5.379.092-5.378,8.094,0,8.185C127.119,281.142,127.118,273.14,121.739,273.049Z"/><path d="M39.722,282.53c5.38-.092,5.379-8.094,0-8.185C34.343,274.437,34.344,282.439,39.722,282.53Z"/><path d="M201.6,277.789c-5.379.092-5.379,8.094,0,8.185C206.978,285.882,206.977,277.88,201.6,277.789Z"/><path d="M184.407,359.917c-5.379.092-5.379,8.094,0,8.185C189.787,368.011,189.786,360.008,184.407,359.917Z"/><path d="M78.408,371.983c-5.379.092-5.378,8.094,0,8.185C83.788,380.077,83.787,372.074,78.408,371.983Z"/><path d="M163.111,442.958c-5.379.092-5.379,8.095,0,8.185C168.491,451.052,168.49,443.05,163.111,442.958Z"/></svg>