<svg xmlns="http://www.w3.org/2000/svg"  viewBox="0 0 53 53" width="96px" height="96px"><path d="M15.9199524 45.3650208c0 .5499878-.4400024 1-1 1H5.7799988c-.5500488 0-1-.4500122-1-1 0-.5500488.4499512-1 1-1h9.1399536C15.47995 44.3650208 15.9199524 44.8149719 15.9199524 45.3650208zM18.269989 33.7149963c.5499878 0 1 .4500122 1 1 0 .5599976-.4500122 1-1 1h-7.4000244c-.5499878 0-1-.4400024-1-1 0-.5499878.4500122-1 1-1H18.269989zM47.3799744 44.7250061c0 2.2600098-1.8400269 4.0999756-4.0999756 4.0999756-2.2600098 0-4.1000366-1.8399658-4.1000366-4.0999756 0-.5499878.4500122-1 1-1s1 .4500122 1 1c0 1.1599731.9400024 2.0999756 2.1000366 2.0999756 1.1599731 0 2.0999756-.9400024 2.0999756-2.0999756 0-1.1600342-.9400024-2.1000366-2.0999756-2.1000366H18.269989c-.5499878 0-1-.4499512-1-1 0-.5499878.4500122-1 1-1h25.0100098C45.5399475 40.6249695 47.3799744 42.4649963 47.3799744 44.7250061zM48.2200012 26.5649719c0 2.2600098-1.8400269 4.1000366-4.1000366 4.1000366s-4.0999756-1.8400269-4.0999756-4.1000366c0-.5499878.4500122-1 1-1s1 .4500122 1 1c0 1.1600342.9400024 2.1000366 2.0999756 2.1000366 1.1600342 0 2.1000366-.9400024 2.1000366-2.1000366 0-1.1499634-.9400024-2.0999756-2.1000366-2.0999756H19.1099548c-.5499878 0-1-.4400024-1-1 0-.5499878.4500122-1 1-1h25.0100098C46.3799744 22.4649963 48.2200012 24.3050232 48.2200012 26.5649719zM40.019989 14.9250183c0-2.2600098 1.8399658-4.1000366 4.0999756-4.1000366s4.1000366 1.8400269 4.1000366 4.1000366c0 2.2599487-1.8400269 4.0999756-4.1000366 4.0999756H19.1099548c-.5499878 0-1-.4500122-1-1s.4500122-1 1-1h25.0100098c1.1600342 0 2.1000366-.9400024 2.1000366-2.0999756 0-1.1600342-.9400024-2.1000366-2.1000366-2.1000366-1.1599731 0-2.0999756.9400024-2.0999756 2.1000366 0 .5499878-.4500122 1-1 1S40.019989 15.4750061 40.019989 14.9250183zM7.7799988 11.3749695c0-.5599976.4499512-1 1-1h25.0099487c1.1600342 0 2.1000366-.9499512 2.1000366-2.0999756 0-1.1599731-.9400024-2.0999756-2.1000366-2.0999756-1.1599731 0-2.0999756.9400024-2.0999756 2.0999756 0 .5499878-.4500122 1-1 1s-1-.4500122-1-1c0-2.2600098 1.8400269-4.0999756 4.0999756-4.0999756 2.2600098 0 4.1000366 1.8399658 4.1000366 4.0999756s-1.8400269 4.0999756-4.1000366 4.0999756H8.7799988C8.22995 12.3749695 7.7799988 11.9250183 7.7799988 11.3749695zM28.7599792 46.2250061c0 .5499878-.4500122 1-1 1h-7.4000244c-.5499878 0-1-.4500122-1-1s.4500122-1 1-1h7.4000244C28.309967 45.2250061 28.7599792 45.6750183 28.7599792 46.2250061zM4.7799988 20.6549988c0-.5499878.4499512-1 1-1h9.1399536c.5599976 0 1 .4500122 1 1s-.4400024 1-1 1H5.7799988C5.22995 21.6549988 4.7799988 21.2049866 4.7799988 20.6549988zM9.8699646 6.7749939c0-.5599976.4500122-1 1-1h7.4000244c.5499878 0 1 .4400024 1 1 0 .5499878-.4500122 1-1 1h-7.4000244C10.3199768 7.7749939 9.8699646 7.3249817 9.8699646 6.7749939zM35.8899841 33.2250061c0-1.1600342-.9400024-2.1000366-2.1000366-2.1000366H8.7799988c-.5500488 0-1-.4499512-1-1 0-.5599976.4499512-1 1-1h25.0099487c2.2600098 0 4.1000366 1.8300171 4.1000366 4.1000366 0 2.2600098-1.8400269 4.0899658-4.1000366 4.0899658-2.2599487 0-4.0999756-1.8299561-4.0999756-4.0899658 0-.5599976.4500122-1 1-1s1 .4400024 1 1c0 1.1499634.9400024 2.0899658 2.0999756 2.0899658C34.9499817 35.3149719 35.8899841 34.3749695 35.8899841 33.2250061z"/></svg>