<svg xmlns="http://www.w3.org/2000/svg" xmlns:xlink="http://www.w3.org/1999/xlink" viewBox="0,0,256,256" width="30px" height="30px" fill-rule="nonzero" fill="#e0f2fe"><g fill="#e0f2fe" fill-rule="nonzero" stroke="none" stroke-width="1" stroke-linecap="butt" stroke-linejoin="miter" stroke-miterlimit="10" stroke-dasharray="" stroke-dashoffset="0" font-family="none" font-weight="none" font-size="none" text-anchor="none" style="mix-blend-mode: normal"><g transform="scale(8.53333,8.53333)"><path d="M17.5,3c-2.30924,0.00249 -4.44378,1.22998 -5.60742,3.22461c-0.4495,-0.14761 -0.91946,-0.22341 -1.39258,-0.22461c-2.30272,0.00147 -4.23279,1.74106 -4.47266,4.03125c-2.28716,0.24156 -4.02409,2.16887 -4.02734,4.46875c0,2.48528 2.01472,4.5 4.5,4.5h17c2.48528,0 4.5,-2.01472 4.5,-4.5c-0.00125,-2.30137 -1.7387,-4.23093 -4.02734,-4.47266c0.01625,-0.17534 0.02538,-0.35126 0.02734,-0.52734c0,-3.58985 -2.91015,-6.5 -6.5,-6.5zM5.98438,20.98633c-0.55152,0.00862 -0.99193,0.46214 -0.98437,1.01367v1c-0.0051,0.36064 0.18438,0.69608 0.49587,0.87789c0.3115,0.18181 0.69676,0.18181 1.00825,0c0.3115,-0.18181 0.50097,-0.51725 0.49587,-0.87789v-1c0.0037,-0.2703 -0.10218,-0.53059 -0.29351,-0.72155c-0.19133,-0.19097 -0.45182,-0.29634 -0.72212,-0.29212zM17.98438,20.98633c-0.55152,0.00862 -0.99193,0.46214 -0.98437,1.01367v1c-0.0051,0.36064 0.18438,0.69608 0.49587,0.87789c0.3115,0.18181 0.69676,0.18181 1.00825,0c0.3115,-0.18181 0.50097,-0.51725 0.49587,-0.87789v-1c0.0037,-0.2703 -0.10218,-0.53059 -0.29351,-0.72155c-0.19133,-0.19097 -0.45182,-0.29634 -0.72212,-0.29212zM11.98438,22.98633c-0.55152,0.00862 -0.99193,0.46214 -0.98437,1.01367v1c-0.0051,0.36064 0.18438,0.69608 0.49587,0.87789c0.3115,0.18181 0.69676,0.18181 1.00825,0c0.3115,-0.18181 0.50097,-0.51725 0.49587,-0.87789v-1c0.0037,-0.2703 -0.10218,-0.53059 -0.29351,-0.72155c-0.19133,-0.19097 -0.45182,-0.29634 -0.72212,-0.29212zM23.98438,22.98633c-0.55152,0.00862 -0.99193,0.46214 -0.98437,1.01367v1c-0.0051,0.36064 0.18438,0.69608 0.49587,0.87789c0.3115,0.18181 0.69676,0.18181 1.00825,0c0.3115,-0.18181 0.50097,-0.51725 0.49587,-0.87789v-1c0.0037,-0.2703 -0.10218,-0.53059 -0.29351,-0.72155c-0.19133,-0.19097 -0.45182,-0.29634 -0.72212,-0.29212z"></path></g></g></svg>