<svg xmlns="http://www.w3.org/2000/svg" xmlns:xlink="http://www.w3.org/1999/xlink" viewBox="0,0,256,256" width="76px" height="76px"><g fill="none" fill-rule="nonzero" stroke="none" stroke-width="1" stroke-linecap="butt" stroke-linejoin="miter" stroke-miterlimit="10" stroke-dasharray="" stroke-dashoffset="0" font-family="none" font-weight="none" font-size="none" text-anchor="none" style="mix-blend-mode: normal"><g transform="scale(6.4,6.4)"><path d="M17.844,33.57l-0.248,-0.043c-0.763,-0.135 -1.529,-0.34 -2.277,-0.612l-0.236,-0.085l-4.024,2.657l0.288,-4.804l-0.192,-0.162c-0.604,-0.508 -1.167,-1.072 -1.676,-1.676l-0.162,-0.192l-4.804,0.288l2.657,-4.024l-0.085,-0.237c-0.271,-0.748 -0.477,-1.513 -0.612,-2.276l-0.043,-0.248l-4.312,-2.156l4.312,-2.156l0.043,-0.248c0.135,-0.763 0.34,-1.529 0.612,-2.277l0.085,-0.236l-2.657,-4.024l4.804,0.288l0.162,-0.192c0.508,-0.604 1.072,-1.167 1.676,-1.676l0.192,-0.162l-0.288,-4.804l4.024,2.657l0.236,-0.085c0.748,-0.271 1.514,-0.477 2.277,-0.612l0.248,-0.043l2.156,-4.312l2.156,4.312l0.248,0.043c0.763,0.135 1.529,0.34 2.277,0.612l0.236,0.085l4.024,-2.657l-0.288,4.804l0.192,0.162c0.604,0.508 1.167,1.072 1.676,1.676l0.162,0.192l4.804,-0.288l-2.657,4.024l0.085,0.236c0.271,0.748 0.477,1.514 0.612,2.277l0.043,0.248l4.312,2.156l-4.312,2.156l-0.043,0.248c-0.135,0.763 -0.341,1.529 -0.612,2.276l-0.085,0.236l2.657,4.024l-4.804,-0.288l-0.162,0.192c-0.508,0.604 -1.072,1.167 -1.676,1.676l-0.192,0.162l0.288,4.804l-4.024,-2.657l-0.236,0.085c-0.748,0.271 -1.514,0.477 -2.277,0.612l-0.248,0.043l-2.156,4.313z" fill="#ffeea3"></path><path d="M20,3.236l1.596,3.192l0.225,0.45l0.495,0.088c0.736,0.13 1.474,0.328 2.193,0.589l0.472,0.171l0.419,-0.277l2.98,-1.968l-0.213,3.555l-0.03,0.502l0.384,0.324c0.582,0.489 1.125,1.033 1.615,1.615l0.323,0.384l0.501,-0.03l3.555,-0.213l-1.968,2.98l-0.277,0.419l0.171,0.472c0.261,0.719 0.459,1.457 0.589,2.193l0.088,0.495l0.45,0.225l3.196,1.598l-3.192,1.596l-0.45,0.225l-0.088,0.495c-0.13,0.736 -0.328,1.474 -0.589,2.193l-0.171,0.472l0.277,0.419l1.968,2.98l-3.555,-0.213l-0.502,-0.03l-0.324,0.384c-0.489,0.581 -1.033,1.125 -1.615,1.615l-0.384,0.324l0.03,0.501l0.213,3.555l-2.98,-1.968l-0.419,-0.277l-0.472,0.171c-0.719,0.261 -1.457,0.459 -2.193,0.589l-0.495,0.088l-0.225,0.45l-1.598,3.195l-1.596,-3.192l-0.225,-0.45l-0.495,-0.088c-0.736,-0.13 -1.474,-0.328 -2.193,-0.589l-0.472,-0.171l-0.419,0.277l-2.98,1.968l0.213,-3.555l0.03,-0.501l-0.384,-0.324c-0.582,-0.49 -1.126,-1.034 -1.615,-1.615l-0.324,-0.384l-0.502,0.03l-3.555,0.213l1.968,-2.98l0.277,-0.419l-0.173,-0.474c-0.261,-0.719 -0.459,-1.457 -0.589,-2.193l-0.088,-0.495l-0.45,-0.225l-3.192,-1.597l3.192,-1.596l0.45,-0.225l0.088,-0.495c0.13,-0.736 0.328,-1.474 0.589,-2.193l0.171,-0.472l-0.276,-0.421l-1.968,-2.98l3.555,0.213l0.501,0.03l0.324,-0.384c0.49,-0.582 1.033,-1.125 1.615,-1.615l0.384,-0.324l-0.03,-0.502l-0.213,-3.555l2.98,1.968l0.419,0.277l0.472,-0.171c0.719,-0.261 1.457,-0.459 2.193,-0.589l0.495,-0.088l0.225,-0.45l1.598,-3.192M20,1l-2.491,4.981c-0.814,0.144 -1.601,0.358 -2.36,0.634l-4.649,-3.07l0.333,5.552c-0.627,0.528 -1.208,1.109 -1.736,1.736l-5.551,-0.333l3.07,4.649c-0.275,0.76 -0.49,1.547 -0.634,2.36l-4.982,2.491l4.981,2.491c0.144,0.814 0.358,1.601 0.634,2.36l-3.069,4.649l5.552,-0.333c0.528,0.627 1.109,1.208 1.736,1.736l-0.334,5.551l4.649,-3.07c0.76,0.276 1.547,0.49 2.36,0.634l2.491,4.982l2.491,-4.981c0.814,-0.144 1.601,-0.358 2.36,-0.634l4.649,3.07l-0.333,-5.552c0.627,-0.528 1.208,-1.109 1.736,-1.736l5.552,0.333l-3.07,-4.649c0.275,-0.76 0.49,-1.547 0.634,-2.36l4.981,-2.491l-4.981,-2.491c-0.144,-0.814 -0.358,-1.601 -0.634,-2.36l3.07,-4.649l-5.552,0.333c-0.528,-0.627 -1.109,-1.208 -1.736,-1.736l0.333,-5.552l-4.649,3.07c-0.76,-0.276 -1.547,-0.49 -2.36,-0.634l-2.491,-4.981z" fill="#ba9b48"></path><path d="M20,10c-5.52285,0 -10,4.47715 -10,10c0,5.52285 4.47715,10 10,10c5.52285,0 10,-4.47715 10,-10c0,-5.52285 -4.47715,-10 -10,-10z" fill="#f5ce85"></path><path d="M36.5,34h-2.015c0.318,-0.42 0.515,-0.936 0.515,-1.5c0,-1.375 -1.125,-2.5 -2.5,-2.5h-6.015c0.318,-0.42 0.515,-0.936 0.515,-1.5c0,-0.564 -0.197,-1.08 -0.515,-1.5h0.015c1.375,0 2.5,-1.125 2.5,-2.5c0,-1.375 -1.125,-2.5 -2.5,-2.5h-9.015c0.318,-0.42 0.515,-0.936 0.515,-1.5c0,-1.375 -1.125,-2.5 -2.5,-2.5h-12c-1.375,0 -2.5,1.125 -2.5,2.5c0,1.375 1.125,2.5 2.5,2.5h1.015c-0.318,0.42 -0.515,0.936 -0.515,1.5c0,0.639 0.25,1.217 0.647,1.66c-0.956,0.352 -1.647,1.265 -1.647,2.34c0,0.564 0.197,1.08 0.515,1.5h-0.015c-1.375,0 -2.5,1.125 -2.5,2.5c0,1.375 1.125,2.5 2.5,2.5h4.015c-0.318,0.42 -0.515,0.936 -0.515,1.5c0,1.375 1.125,2.5 2.5,2.5h27c1.375,0 2.5,-1.125 2.5,-2.5c0,-1.375 -1.125,-2.5 -2.5,-2.5z" fill="#f0f9ff"></path><path d="M20,30c2.593,0 4.947,-0.995 6.724,-2.614c-0.07,-0.135 -0.148,-0.266 -0.239,-0.386h0.015c0.264,0 0.514,-0.053 0.753,-0.129c0.699,-0.738 1.283,-1.581 1.733,-2.505c-0.072,-1.312 -1.157,-2.366 -2.486,-2.366h-9.015c0.318,-0.42 0.515,-0.936 0.515,-1.5c0,-1.375 -1.125,-2.5 -2.5,-2.5h-5.299c-0.131,0.646 -0.201,1.315 -0.201,2c0,5.523 4.477,10 10,10z" fill="#f0f9ff"></path><path d="M36.5,34h-2.015c0.318,-0.42 0.515,-0.936 0.515,-1.5c0,-1.375 -1.125,-2.5 -2.5,-2.5h-6.015c0.318,-0.42 0.515,-0.936 0.515,-1.5c0,-0.564 -0.197,-1.08 -0.515,-1.5h0.015c1.375,0 2.5,-1.125 2.5,-2.5c0,-1.375 -1.125,-2.5 -2.5,-2.5h-9.015c0.318,-0.42 0.515,-0.936 0.515,-1.5c0,-1.375 -1.125,-2.5 -2.5,-2.5h-12c-1.375,0 -2.5,1.125 -2.5,2.5c0,1.375 1.125,2.5 2.5,2.5h1.015c-0.318,0.42 -0.515,0.936 -0.515,1.5c0,0.639 0.25,1.217 0.647,1.66c-0.956,0.352 -1.647,1.265 -1.647,2.34c0,0.564 0.197,1.08 0.515,1.5h-0.015c-1.375,0 -2.5,1.125 -2.5,2.5c0,1.375 1.125,2.5 2.5,2.5h4.015c-0.318,0.42 -0.515,0.936 -0.515,1.5c0,1.375 1.125,2.5 2.5,2.5h27c1.375,0 2.5,-1.125 2.5,-2.5c0,-1.375 -1.125,-2.5 -2.5,-2.5zM36.5,38h-27c-0.827,0 -1.5,-0.673 -1.5,-1.5c0,-0.827 0.673,-1.5 1.5,-1.5h0.5v-1h-0.5h-6c-0.827,0 -1.5,-0.673 -1.5,-1.5c0,-0.827 0.673,-1.5 1.5,-1.5h2h0.5v-1h-0.5c-0.827,0 -1.5,-0.673 -1.5,-1.5c0,-0.827 0.673,-1.5 1.5,-1.5h1h0.5v-1h-0.5c-0.827,0 -1.5,-0.673 -1.5,-1.5c0,-0.827 0.673,-1.5 1.5,-1.5h0.5v-1h-0.5h-3c-0.827,0 -1.5,-0.673 -1.5,-1.5c0,-0.827 0.673,-1.5 1.5,-1.5h12c0.827,0 1.5,0.673 1.5,1.5c0,0.827 -0.673,1.5 -1.5,1.5h-0.5v1h0.5h11c0.827,0 1.5,0.673 1.5,1.5c0,0.827 -0.673,1.5 -1.5,1.5h-2h-0.5v1h0.5c0.827,0 1.5,0.673 1.5,1.5c0,0.827 -0.673,1.5 -1.5,1.5h-0.5v1h0.5h8c0.827,0 1.5,0.673 1.5,1.5c0,0.827 -0.673,1.5 -1.5,1.5h-0.5v1h0.5h4c0.827,0 1.5,0.673 1.5,1.5c0,0.827 -0.673,1.5 -1.5,1.5z" fill="#f0f9ff"></path></g></g></svg>