<svg xmlns="http://www.w3.org/2000/svg" xmlns:xlink="http://www.w3.org/1999/xlink" viewBox="0,0,256,256" width="76px" height="76px"><g fill="none" fill-rule="nonzero" stroke="none" stroke-width="1" stroke-linecap="butt" stroke-linejoin="miter" stroke-miterlimit="10" stroke-dasharray="" stroke-dashoffset="0" font-family="none" font-weight="none" font-size="none" text-anchor="none" style="mix-blend-mode: normal"><g transform="scale(6.4,6.4)"><path d="M8.628,17.862l-0.203,-0.046c-0.161,-0.037 -0.321,-0.074 -0.477,-0.123l-0.198,-0.061l-2.278,1.211l-0.09,-2.59l-0.152,-0.142c-0.118,-0.109 -0.231,-0.223 -0.341,-0.341l-0.142,-0.152l-2.59,-0.09l1.211,-2.279l-0.062,-0.199c-0.048,-0.156 -0.085,-0.316 -0.122,-0.477l-0.046,-0.203l-2.195,-1.37l2.195,-1.372l0.046,-0.203c0.037,-0.161 0.074,-0.321 0.122,-0.477l0.062,-0.198l-1.211,-2.278l2.59,-0.09l0.142,-0.152c0.109,-0.118 0.223,-0.231 0.341,-0.341l0.152,-0.142l0.09,-2.59l2.278,1.211l0.199,-0.062c0.156,-0.048 0.316,-0.085 0.477,-0.122l0.203,-0.046l1.371,-2.195l1.372,2.195l0.203,0.046c0.161,0.037 0.321,0.074 0.477,0.122l0.199,0.062l2.279,-1.211l0.09,2.59l0.152,0.142c0.118,0.109 0.231,0.223 0.341,0.341l0.142,0.152l2.59,0.09l-1.213,2.278l0.062,0.199c0.048,0.156 0.085,0.316 0.122,0.477l0.046,0.203l2.195,1.371l-2.195,1.372l-0.046,0.203c-0.037,0.161 -0.074,0.321 -0.122,0.477l-0.062,0.199l1.211,2.279l-2.59,0.09l-0.142,0.152c-0.109,0.118 -0.223,0.231 -0.341,0.341l-0.152,0.142l-0.09,2.59l-2.278,-1.211l-0.199,0.061c-0.156,0.048 -0.316,0.085 -0.477,0.123l-0.203,0.046l-1.371,2.193z" fill="#ffeea3"></path><path d="M10,2.887l0.838,1.34l0.22,0.352l0.404,0.093c0.149,0.034 0.299,0.069 0.444,0.113l0.396,0.121l0.366,-0.195l1.389,-0.738l0.055,1.584l0.014,0.413l0.302,0.282c0.11,0.102 0.215,0.208 0.318,0.318l0.282,0.302l0.413,0.014l1.584,0.055l-0.738,1.389l-0.195,0.366l0.121,0.396c0.045,0.145 0.079,0.295 0.114,0.444l0.093,0.404l0.352,0.22l1.341,0.84l-1.34,0.838l-0.352,0.22l-0.093,0.404c-0.034,0.149 -0.069,0.299 -0.113,0.444l-0.121,0.396l0.195,0.366l0.738,1.389l-1.584,0.055l-0.413,0.014l-0.282,0.302c-0.102,0.11 -0.208,0.215 -0.318,0.318l-0.302,0.282l-0.014,0.413l-0.055,1.584l-1.389,-0.738l-0.366,-0.195l-0.396,0.121c-0.145,0.045 -0.295,0.079 -0.444,0.114l-0.404,0.093l-0.22,0.352l-0.84,1.341l-0.838,-1.34l-0.22,-0.352l-0.404,-0.093c-0.15,-0.034 -0.299,-0.069 -0.444,-0.114l-0.396,-0.121l-0.366,0.195l-1.389,0.738l-0.055,-1.584l-0.014,-0.413l-0.302,-0.282c-0.11,-0.102 -0.215,-0.208 -0.318,-0.318l-0.282,-0.302l-0.413,-0.014l-1.584,-0.055l0.738,-1.389l0.195,-0.366l-0.121,-0.396c-0.044,-0.145 -0.079,-0.295 -0.113,-0.444l-0.093,-0.404l-0.352,-0.22l-1.342,-0.839l1.34,-0.838l0.352,-0.22l0.093,-0.404c0.034,-0.15 0.069,-0.299 0.114,-0.444l0.121,-0.396l-0.195,-0.366l-0.738,-1.389l1.584,-0.055l0.413,-0.014l0.282,-0.302c0.102,-0.11 0.208,-0.215 0.318,-0.318l0.302,-0.282l0.014,-0.413l0.055,-1.584l1.389,0.738l0.366,0.195l0.396,-0.121c0.147,-0.046 0.296,-0.081 0.445,-0.115l0.404,-0.093l0.22,-0.352l0.838,-1.34M10,1l-1.686,2.697c-0.173,0.04 -0.345,0.08 -0.513,0.132l-2.801,-1.489l-0.111,3.182c-0.127,0.118 -0.249,0.24 -0.367,0.367l-3.182,0.111l1.489,2.802c-0.051,0.168 -0.092,0.34 -0.132,0.513l-2.697,1.685l2.697,1.686c0.04,0.173 0.08,0.345 0.132,0.513l-1.489,2.801l3.183,0.111c0.118,0.126 0.24,0.248 0.366,0.366l0.111,3.183l2.801,-1.489c0.168,0.051 0.34,0.092 0.513,0.132l1.686,2.697l1.686,-2.697c0.173,-0.04 0.345,-0.08 0.513,-0.132l2.801,1.489l0.111,-3.183c0.126,-0.118 0.248,-0.24 0.366,-0.366l3.183,-0.111l-1.489,-2.802c0.051,-0.168 0.092,-0.34 0.132,-0.513l2.697,-1.685l-2.697,-1.686c-0.04,-0.173 -0.08,-0.345 -0.132,-0.513l1.489,-2.801l-3.183,-0.111c-0.118,-0.126 -0.24,-0.248 -0.366,-0.366l-0.111,-3.183l-2.802,1.489c-0.168,-0.051 -0.34,-0.092 -0.513,-0.132l-1.685,-2.697z" fill="#c29653"></path><path d="M10,6c-2.76142,0 -5,2.23858 -5,5c0,2.76142 2.23858,5 5,5c2.76142,0 5,-2.23858 5,-5c0,-2.76142 -2.23858,-5 -5,-5z" fill="#f5ce85"></path><path d="M8,30.5c-3.033,0 -5.5,-2.467 -5.5,-5.5c0,-2.33 1.48,-4.414 3.683,-5.186l0.352,-0.123c0,0 -0.034,-0.627 -0.034,-0.691c0,-3.584 2.916,-6.5 6.5,-6.5h0.441l0.123,-0.435c0.466,-3.743 3.663,-6.565 7.435,-6.565c2.679,0 5.173,1.45 6.509,3.785l0.161,0.281l0.322,-0.032c0.222,-0.022 0.447,-0.034 0.675,-0.034c3.768,0 6.833,3.065 6.833,6.833c0,0.143 -0.011,0.284 -0.021,0.425l-0.023,0.327l0.286,0.214c2.318,1.215 3.758,3.591 3.758,6.201c0,3.669 -2.87,6.733 -6.533,6.976l-0.367,0.024z" fill="#f0f9ff"></path><path d="M21,6c2.5,0 4.828,1.354 6.075,3.533l0.321,0.562l0.644,-0.063c0.216,-0.021 0.426,-0.032 0.627,-0.032c3.492,0 6.333,2.841 6.333,6.333c0,0.132 -0.01,0.261 -0.019,0.39l-0.004,0.062l-0.046,0.653l0.58,0.304c2.152,1.128 3.489,3.335 3.489,5.758c0,3.407 -2.664,6.252 -6.066,6.477l-0.247,0.023h-24.687c-2.757,0 -5,-2.243 -5,-5c0,-2.118 1.345,-4.012 3.348,-4.714l0.704,-0.247l-0.036,-0.745l-0.008,-0.137c-0.004,-0.052 -0.008,-0.104 -0.008,-0.157c0,-3.308 2.692,-6 5.962,-6.001l0.064,0.004h0.031l0.893,0.01l0.11,-0.886c0.436,-3.493 3.419,-6.127 6.94,-6.127M21,5c-4.08,0 -7.44,3.057 -7.931,7.003c-0.023,0 -0.046,-0.003 -0.069,-0.003c-3.866,0 -7,3.134 -7,7c0,0.116 0.012,0.228 0.017,0.342c-2.338,0.82 -4.017,3.04 -4.017,5.658c0,3.314 2.686,6 6,6h25v-0.025c3.908,-0.258 7,-3.501 7,-7.475c0,-2.888 -1.634,-5.39 -4.026,-6.644c0.012,-0.173 0.026,-0.346 0.026,-0.523c0,-4.05 -3.283,-7.333 -7.333,-7.333c-0.244,0 -0.485,0.013 -0.724,0.036c-1.378,-2.409 -3.968,-4.036 -6.943,-4.036z" fill="#f0f9ff"></path><path d="M6.679,21.23l0.704,-0.247l0.704,-0.247l-0.036,-0.745l-0.037,-0.757l-0.01,-0.168l-0.004,-0.066c0,-2.747 2.21,-4.984 4.932,-5.001l0.031,0.002l0.057,0.002h0.026l0.893,0.01l0.893,0.01l0.11,-0.886l0.11,-0.886c0.374,-2.994 2.931,-5.251 5.948,-5.251v-1c-3.521,0 -6.504,2.634 -6.939,6.127l-0.11,0.886l-0.893,-0.01h-0.031l-0.064,-0.004c-3.271,0.001 -5.963,2.693 -5.963,6.001c0,0.053 0.004,0.105 0.008,0.157l0.008,0.137l0.036,0.745l-0.704,0.247c-2.002,0.702 -3.348,2.596 -3.348,4.714h1c0,-1.693 1.077,-3.208 2.679,-3.77z" fill="#ffffff"></path><path d="M11.5,38.5c-1.103,0 -2,-0.897 -2,-2c0,-1.484 1.95,-3.506 3.197,-4.599c0.285,1.25 0.803,3.648 0.803,4.599c0,1.103 -0.897,2 -2,2z" fill="#0369a1"></path><path d="M12.397,32.852c0.289,1.333 0.603,2.956 0.603,3.648c0,0.827 -0.673,1.5 -1.5,1.5c-0.827,0 -1.5,-0.673 -1.5,-1.5c0,-0.978 1.177,-2.469 2.397,-3.648M13,31c0,0 -4,3.104 -4,5.5c0,1.381 1.119,2.5 2.5,2.5c1.381,0 2.5,-1.119 2.5,-2.5c0,-1.381 -1,-5.5 -1,-5.5z" fill="#0369a1"></path><g fill="#0369a1"><path d="M20.5,31.5c-1.103,0 -2,-0.897 -2,-2c0,-1.484 1.95,-3.506 3.197,-4.599c0.285,1.25 0.803,3.648 0.803,4.599c0,1.103 -0.897,2 -2,2z"></path><path d="M21.397,25.852c0.289,1.333 0.603,2.956 0.603,3.648c0,0.827 -0.673,1.5 -1.5,1.5c-0.827,0 -1.5,-0.673 -1.5,-1.5c0,-0.978 1.177,-2.469 2.397,-3.648M22,24c0,0 -4,3.104 -4,5.5c0,1.381 1.119,2.5 2.5,2.5c1.381,0 2.5,-1.119 2.5,-2.5c0,-1.381 -1,-5.5 -1,-5.5z"></path></g><g fill="#0369a1"><path d="M27.5,38.5c-1.103,0 -2,-0.897 -2,-2c0,-1.484 1.95,-3.506 3.197,-4.599c0.285,1.25 0.803,3.648 0.803,4.599c0,1.103 -0.897,2 -2,2z"></path><path d="M28.397,32.852c0.289,1.333 0.603,2.956 0.603,3.648c0,0.827 -0.673,1.5 -1.5,1.5c-0.827,0 -1.5,-0.673 -1.5,-1.5c0,-0.978 1.177,-2.469 2.397,-3.648M29,31c0,0 -4,3.104 -4,5.5c0,1.381 1.119,2.5 2.5,2.5c1.381,0 2.5,-1.119 2.5,-2.5c0,-1.381 -1,-5.5 -1,-5.5z"></path></g></g></g></svg>