<svg xmlns="http://www.w3.org/2000/svg" xmlns:xlink="http://www.w3.org/1999/xlink" viewBox="0,0,256,256" width="76px" height="76px"><g fill="none" fill-rule="nonzero" stroke="#f0f9ff" stroke-width="1" stroke-linecap="butt" stroke-linejoin="miter" stroke-miterlimit="10" stroke-dasharray="" stroke-dashoffset="0" font-family="none" font-weight="none" font-size="none" text-anchor="none" style="mix-blend-mode: normal"><g transform="scale(6.4,6.4)"><path d="M6.5,30v-10M2.214,27.414l8.571,-4.828M10.785,27.414l-8.571,-4.828M16.5,38v-10M12.214,35.414l8.571,-4.828M20.785,35.414l-8.571,-4.828M28.5,36v-6M25.928,34.448l5.143,-2.896M31.071,34.448l-5.143,-2.896M29.5,15v-14M12.5,17v-12M7.25,14l10.5,-6M17.75,14l-10.5,-6M27.4,1.799l2.1,1.4l2.1,-1.4M27.4,14.201l2.1,-1.4l2.1,1.4"></path><g><path d="M23.388,4.588l12.224,6.824M25.109,3.144l0.199,2.517l-2.246,1.151M35.938,9.188l-2.246,1.152l0.199,2.516"></path></g><g><path d="M23.388,11.412l12.224,-6.824M33.891,3.144l-0.199,2.517l2.246,1.151M23.062,9.188l2.246,1.152l-0.199,2.516"></path></g><path d="M38,28.5h-5M35.5,31v-5"></path></g></g></svg>