<svg xmlns="http://www.w3.org/2000/svg" xmlns:xlink="http://www.w3.org/1999/xlink" viewBox="0,0,256,256" width="76px" height="76px"><g fill="none" fill-rule="nonzero" stroke="none" stroke-width="1" stroke-linecap="butt" stroke-linejoin="miter" stroke-miterlimit="10" stroke-dasharray="" stroke-dashoffset="0" font-family="none" font-weight="none" font-size="none" text-anchor="none" style="mix-blend-mode: normal"><g transform="scale(6.4,6.4)"><path d="M24.5,29.5c-5.728,0 -10.85,-3.534 -12.96,-8.766c1.77,1.147 3.836,1.766 5.96,1.766c6.065,0 11,-4.935 11,-11c0,-4.197 -2.36,-7.979 -6.075,-9.836c0.699,-0.109 1.392,-0.164 2.075,-0.164c7.72,0 14,6.28 14,14c0,7.72 -6.28,14 -14,14z" fill="#ffeea3"></path><path d="M24.5,2c7.444,0 13.5,6.056 13.5,13.5c0,7.444 -6.056,13.5 -13.5,13.5c-5.006,0 -9.531,-2.799 -11.85,-7.08c1.508,0.706 3.162,1.08 4.85,1.08c6.341,0 11.5,-5.159 11.5,-11.5c0,-3.855 -1.905,-7.375 -5.001,-9.49c0.168,-0.007 0.335,-0.01 0.501,-0.01M24.5,1c-1.291,0 -2.536,0.185 -3.727,0.501c0.311,0.1 0.56,0.202 0.765,0.306c3.794,1.582 6.462,5.325 6.462,9.693c0,5.799 -4.701,10.5 -10.5,10.5c-2.671,0 -5.102,-1.006 -6.955,-2.649c1.69,6.134 7.284,10.649 13.955,10.649c8.008,0 14.5,-6.492 14.5,-14.5c0,-8.008 -6.492,-14.5 -14.5,-14.5z" fill="#f5c276"></path><path d="M5.52,9.479l-2.939,-0.979l2.939,-0.98l0.98,-2.939l0.979,2.939l2.94,0.98l-2.94,0.979l-0.979,2.94z" fill="#ffeea3"></path><path d="M6.5,6.162l0.426,1.279l0.158,0.474l0.474,0.158l1.28,0.427l-1.279,0.426l-0.475,0.158l-0.158,0.475l-0.426,1.279l-0.426,-1.279l-0.158,-0.475l-0.475,-0.158l-1.279,-0.426l1.279,-0.426l0.474,-0.158l0.158,-0.474l0.427,-1.28M6.5,3l-1.375,4.125l-4.125,1.375l4.125,1.375l1.375,4.125l1.375,-4.125l4.125,-1.375l-4.125,-1.375l-1.375,-4.125z" fill="#f5c276"></path><path d="M17.082,9.914l-1.064,-0.355l1.064,-0.354l0.355,-1.065l0.354,1.065l1.065,0.354l-1.065,0.355l-0.354,1.064z" fill="#ffeea3"></path><path d="M17.437,6.559l-0.75,2.25l-2.25,0.75l2.25,0.75l0.75,2.25l0.75,-2.25l2.25,-0.75l-2.25,-0.75z" fill="#f5c276"></path><g fill="#f0f9ff"><path d="M36.5,34h-2.015c0.318,-0.42 0.515,-0.936 0.515,-1.5c0,-1.375 -1.125,-2.5 -2.5,-2.5h-6.015c0.318,-0.42 0.515,-0.936 0.515,-1.5c0,-0.564 -0.197,-1.08 -0.515,-1.5h0.015c1.375,0 2.5,-1.125 2.5,-2.5c0,-1.375 -1.125,-2.5 -2.5,-2.5h-9.015c0.318,-0.42 0.515,-0.936 0.515,-1.5c0,-1.375 -1.125,-2.5 -2.5,-2.5h-12c-1.375,0 -2.5,1.125 -2.5,2.5c0,1.375 1.125,2.5 2.5,2.5h1.015c-0.318,0.42 -0.515,0.936 -0.515,1.5c0,0.639 0.25,1.217 0.647,1.66c-0.956,0.352 -1.647,1.265 -1.647,2.34c0,0.564 0.197,1.08 0.515,1.5h-0.015c-1.375,0 -2.5,1.125 -2.5,2.5c0,1.375 1.125,2.5 2.5,2.5h4.015c-0.318,0.42 -0.515,0.936 -0.515,1.5c0,1.375 1.125,2.5 2.5,2.5h27c1.375,0 2.5,-1.125 2.5,-2.5c0,-1.375 -1.125,-2.5 -2.5,-2.5z"></path></g><g fill="#f0f9ff"><path d="M10.545,19.351c1.69,6.134 7.284,10.649 13.955,10.649c0.709,0 1.404,-0.055 2.085,-0.155c0.255,-0.39 0.415,-0.847 0.415,-1.345c0,-0.564 -0.197,-1.08 -0.515,-1.5h0.015c1.375,0 2.5,-1.125 2.5,-2.5c0,-1.375 -1.125,-2.5 -2.5,-2.5h-9.015c0,0 0,0 0,-0.001c-2.665,-0.003 -5.09,-1.008 -6.94,-2.648z"></path></g><path d="M36.5,34h-2.015c0.318,-0.42 0.515,-0.936 0.515,-1.5c0,-1.375 -1.125,-2.5 -2.5,-2.5h-6.015c0.318,-0.42 0.515,-0.936 0.515,-1.5c0,-0.564 -0.197,-1.08 -0.515,-1.5h0.015c1.375,0 2.5,-1.125 2.5,-2.5c0,-1.375 -1.125,-2.5 -2.5,-2.5h-9.015c0.318,-0.42 0.515,-0.936 0.515,-1.5c0,-1.375 -1.125,-2.5 -2.5,-2.5h-12c-1.375,0 -2.5,1.125 -2.5,2.5c0,1.375 1.125,2.5 2.5,2.5h1.015c-0.318,0.42 -0.515,0.936 -0.515,1.5c0,0.639 0.25,1.217 0.647,1.66c-0.956,0.352 -1.647,1.265 -1.647,2.34c0,0.564 0.197,1.08 0.515,1.5h-0.015c-1.375,0 -2.5,1.125 -2.5,2.5c0,1.375 1.125,2.5 2.5,2.5h4.015c-0.318,0.42 -0.515,0.936 -0.515,1.5c0,1.375 1.125,2.5 2.5,2.5h27c1.375,0 2.5,-1.125 2.5,-2.5c0,-1.375 -1.125,-2.5 -2.5,-2.5zM36.5,38h-27c-0.827,0 -1.5,-0.673 -1.5,-1.5c0,-0.827 0.673,-1.5 1.5,-1.5h0.5v-1h-0.5h-6c-0.827,0 -1.5,-0.673 -1.5,-1.5c0,-0.827 0.673,-1.5 1.5,-1.5h2h0.5v-1h-0.5c-0.827,0 -1.5,-0.673 -1.5,-1.5c0,-0.827 0.673,-1.5 1.5,-1.5h1h0.5v-1h-0.5c-0.827,0 -1.5,-0.673 -1.5,-1.5c0,-0.827 0.673,-1.5 1.5,-1.5h0.5v-1h-0.5h-3c-0.827,0 -1.5,-0.673 -1.5,-1.5c0,-0.827 0.673,-1.5 1.5,-1.5h12c0.827,0 1.5,0.673 1.5,1.5c0,0.827 -0.673,1.5 -1.5,1.5h-0.5v1h0.5h11c0.827,0 1.5,0.673 1.5,1.5c0,0.827 -0.673,1.5 -1.5,1.5h-2h-0.5v1h0.5c0.827,0 1.5,0.673 1.5,1.5c0,0.827 -0.673,1.5 -1.5,1.5h-0.5v1h0.5h8c0.827,0 1.5,0.673 1.5,1.5c0,0.827 -0.673,1.5 -1.5,1.5h-0.5v1h0.5h4c0.827,0 1.5,0.673 1.5,1.5c0,0.827 -0.673,1.5 -1.5,1.5z" fill="#f0f9ff"></path></g></g></svg>