<svg xmlns="http://www.w3.org/2000/svg" xmlns:xlink="http://www.w3.org/1999/xlink" viewBox="0,0,256,256" width="76px" height="76px"><g fill="none" fill-rule="nonzero" stroke="none" stroke-width="1" stroke-linecap="butt" stroke-linejoin="miter" stroke-miterlimit="10" stroke-dasharray="" stroke-dashoffset="0" font-family="none" font-weight="none" font-size="none" text-anchor="none" style="mix-blend-mode: normal"><g transform="scale(6.4,6.4)"><path d="M8.628,17.862l-0.202,-0.046c-0.16,-0.037 -0.32,-0.074 -0.477,-0.123l-0.198,-0.061l-2.279,1.211l-0.091,-2.591l-0.152,-0.142c-0.118,-0.109 -0.23,-0.223 -0.341,-0.341l-0.141,-0.151l-2.59,-0.09l1.211,-2.279l-0.062,-0.199c-0.048,-0.155 -0.086,-0.315 -0.122,-0.476l-0.046,-0.203l-2.195,-1.371l2.194,-1.371l0.047,-0.202c0.037,-0.161 0.074,-0.322 0.122,-0.478l0.062,-0.199l-1.211,-2.278l2.59,-0.09l0.141,-0.152c0.11,-0.118 0.223,-0.231 0.341,-0.341l0.152,-0.142l0.091,-2.591l2.279,1.211l0.198,-0.061c0.156,-0.048 0.316,-0.085 0.477,-0.123l0.202,-0.046l1.372,-2.194l1.372,2.195l0.202,0.046c0.16,0.037 0.32,0.074 0.477,0.123l0.198,0.061l2.279,-1.211l0.091,2.591l0.152,0.142c0.118,0.109 0.23,0.223 0.341,0.341l0.141,0.151l2.59,0.09l-1.211,2.278l0.062,0.199c0.048,0.156 0.085,0.317 0.122,0.478l0.047,0.202l2.194,1.371l-2.195,1.372l-0.046,0.203c-0.036,0.16 -0.074,0.32 -0.122,0.476l-0.062,0.199l1.211,2.279l-2.59,0.09l-0.141,0.151c-0.11,0.118 -0.223,0.231 -0.341,0.341l-0.152,0.142l-0.091,2.591l-2.279,-1.211l-0.198,0.061c-0.156,0.048 -0.316,0.085 -0.477,0.123l-0.202,0.046l-1.372,2.194z" fill="#ffeea3"></path><path d="M10,2.887l0.838,1.34l0.22,0.352l0.404,0.093c0.149,0.034 0.299,0.069 0.444,0.113l0.396,0.121l0.366,-0.195l1.389,-0.738l0.055,1.584l0.014,0.413l0.302,0.282c0.11,0.102 0.215,0.208 0.318,0.318l0.282,0.302l0.414,0.014l1.584,0.055l-0.738,1.389l-0.195,0.366l0.121,0.396c0.044,0.145 0.079,0.295 0.114,0.444l0.093,0.404l0.352,0.22l1.34,0.84l-1.34,0.838l-0.352,0.22l-0.093,0.404c-0.034,0.149 -0.069,0.299 -0.113,0.444l-0.121,0.396l0.195,0.366l0.738,1.389l-1.584,0.055l-0.414,0.014l-0.282,0.302c-0.102,0.11 -0.208,0.215 -0.318,0.318l-0.302,0.282l-0.014,0.413l-0.055,1.584l-1.389,-0.738l-0.366,-0.195l-0.396,0.121c-0.145,0.045 -0.295,0.079 -0.444,0.114l-0.404,0.093l-0.22,0.352l-0.839,1.341l-0.838,-1.34l-0.22,-0.352l-0.404,-0.093c-0.15,-0.034 -0.299,-0.069 -0.444,-0.114l-0.396,-0.121l-0.366,0.195l-1.389,0.738l-0.055,-1.584l-0.014,-0.413l-0.302,-0.282c-0.11,-0.102 -0.215,-0.208 -0.318,-0.318l-0.282,-0.302l-0.414,-0.014l-1.584,-0.055l0.738,-1.389l0.195,-0.366l-0.121,-0.396c-0.044,-0.145 -0.079,-0.295 -0.113,-0.444l-0.093,-0.404l-0.352,-0.22l-1.341,-0.839l1.34,-0.838l0.352,-0.22l0.093,-0.404c0.034,-0.15 0.069,-0.299 0.114,-0.444l0.121,-0.396l-0.195,-0.366l-0.738,-1.389l1.584,-0.055l0.414,-0.014l0.282,-0.302c0.102,-0.11 0.208,-0.215 0.318,-0.318l0.302,-0.282l0.014,-0.413l0.055,-1.584l1.389,0.738l0.366,0.195l0.396,-0.121c0.146,-0.046 0.295,-0.081 0.444,-0.115l0.404,-0.093l0.22,-0.352l0.838,-1.34M10,1l-1.686,2.697c-0.173,0.04 -0.345,0.08 -0.513,0.132l-2.801,-1.489l-0.111,3.182c-0.127,0.118 -0.249,0.24 -0.367,0.367l-3.182,0.111l1.489,2.802c-0.051,0.168 -0.092,0.34 -0.132,0.513l-2.697,1.685l2.697,1.686c0.04,0.173 0.08,0.345 0.132,0.513l-1.489,2.801l3.183,0.111c0.118,0.126 0.24,0.248 0.366,0.366l0.111,3.183l2.801,-1.489c0.168,0.051 0.34,0.092 0.513,0.132l1.686,2.697l1.686,-2.697c0.173,-0.04 0.345,-0.08 0.513,-0.132l2.801,1.489l0.111,-3.183c0.126,-0.118 0.248,-0.24 0.366,-0.366l3.183,-0.111l-1.489,-2.802c0.051,-0.168 0.092,-0.34 0.132,-0.513l2.697,-1.685l-2.697,-1.686c-0.04,-0.173 -0.08,-0.345 -0.132,-0.513l1.489,-2.801l-3.183,-0.111c-0.118,-0.126 -0.24,-0.248 -0.366,-0.366l-0.111,-3.183l-2.802,1.489c-0.168,-0.051 -0.34,-0.092 -0.513,-0.132l-1.685,-2.697z" fill="#c29653"></path><path d="M10,6c-2.76142,0 -5,2.23858 -5,5c0,2.76142 2.23858,5 5,5c2.76142,0 5,-2.23858 5,-5c0,-2.76142 -2.23858,-5 -5,-5z" fill="#f5ce85"></path><path d="M7,35.5c-3.584,0 -6.5,-2.916 -6.5,-6.5c0,-2.497 1.464,-4.802 3.73,-5.873l0.271,-0.128l0.014,-0.301c0.161,-3.476 3.009,-6.198 6.485,-6.198c0.299,0 0.61,0.026 0.98,0.082l0.514,0.078l0.059,-0.516c0.429,-3.788 3.632,-6.644 7.447,-6.644c2.698,0 5.2,1.464 6.53,3.82l0.166,0.293l0.334,-0.043c0.318,-0.042 0.64,-0.07 0.97,-0.07c4.136,0 7.5,3.364 7.5,7.5v0.289l0.246,0.221c2.316,1.34 3.754,3.826 3.754,6.49c0,4.136 -3.364,7.5 -7.5,7.5z" fill="#f0f9ff"></path><path d="M20,10c2.517,0 4.853,1.366 6.095,3.566l0.331,0.586l0.668,-0.086c0.349,-0.045 0.636,-0.066 0.906,-0.066c3.86,0 7,3.14 7.001,6.967l-0.004,0.069v0.032l-0.006,0.583l0.505,0.292c2.161,1.25 3.504,3.571 3.504,6.057c0,3.86 -3.14,7 -7,7h-25c-3.308,0 -6,-2.692 -6,-6c0,-2.304 1.352,-4.432 3.444,-5.421l0.544,-0.257l0.028,-0.601c0.147,-3.208 2.776,-5.721 5.984,-5.721c0.273,0 0.561,0.024 0.906,0.077l1.026,0.156l0.117,-1.031c0.402,-3.536 3.39,-6.202 6.951,-6.202M20,9c-4.109,0 -7.491,3.1 -7.944,7.088c-0.346,-0.052 -0.696,-0.088 -1.056,-0.088c-3.756,0 -6.813,2.961 -6.984,6.675c-2.371,1.121 -4.016,3.528 -4.016,6.325c0,3.866 3.134,7 7,7h25c4.418,0 8,-3.582 8,-8c0,-2.961 -1.613,-5.54 -4.004,-6.923c0,-0.026 0.004,-0.051 0.004,-0.077c0,-4.418 -3.582,-8 -8,-8c-0.351,0 -0.695,0.03 -1.034,0.074c-1.373,-2.43 -3.976,-4.074 -6.966,-4.074z" fill="#f0f9ff"></path><path d="M20,10c-3.561,0 -6.549,2.666 -6.951,6.201l-0.117,1.031l-1.026,-0.156c-0.345,-0.052 -0.633,-0.076 -0.906,-0.076c-3.208,0 -5.837,2.513 -5.985,5.721l-0.028,0.601l-0.544,0.257c-2.091,0.989 -3.443,3.117 -3.443,5.421h1c0,-1.92 1.127,-3.693 2.871,-4.517l0.544,-0.257l0.544,-0.257l0.028,-0.601l0.028,-0.601c0.122,-2.673 2.312,-4.767 4.985,-4.767c0.222,0 0.462,0.021 0.756,0.065l1.026,0.156l1.026,0.156l0.117,-1.031l0.117,-1.031c0.345,-3.031 2.906,-5.315 5.958,-5.315z" fill="#f0f9ff"></path></g></g></svg>