<svg xmlns="http://www.w3.org/2000/svg" xmlns:xlink="http://www.w3.org/1999/xlink" viewBox="0,0,256,256" width="76px" height="76px"><g fill="none" fill-rule="nonzero" stroke="none" stroke-width="1" stroke-linecap="butt" stroke-linejoin="miter" stroke-miterlimit="10" stroke-dasharray="" stroke-dashoffset="0" font-family="none" font-weight="none" font-size="none" text-anchor="none" style="mix-blend-mode: normal"><g transform="scale(6.4,6.4)"><path d="M7,27.5c-3.584,0 -6.5,-2.916 -6.5,-6.5c0,-2.497 1.464,-4.802 3.73,-5.873l0.271,-0.128l0.014,-0.301c0.161,-3.476 3.009,-6.198 6.485,-6.198c0.299,0 0.61,0.026 0.98,0.082l0.514,0.078l0.059,-0.516c0.429,-3.788 3.632,-6.644 7.447,-6.644c2.698,0 5.2,1.464 6.53,3.82l0.166,0.293l0.334,-0.043c0.319,-0.041 0.64,-0.07 0.97,-0.07c4.136,0 7.5,3.364 7.5,7.5v0.289l0.246,0.221c2.316,1.34 3.754,3.826 3.754,6.49c0,4.136 -3.364,7.5 -7.5,7.5z" fill="#f0f9ff"></path><path d="M20,2c2.517,0 4.853,1.366 6.095,3.566l0.331,0.586l0.668,-0.086c0.349,-0.045 0.636,-0.066 0.906,-0.066c3.86,0 7,3.14 7.001,6.967l-0.004,0.069v0.032l-0.006,0.583l0.505,0.292c2.161,1.25 3.504,3.571 3.504,6.057c0,3.86 -3.14,7 -7,7h-25c-3.308,0 -6,-2.692 -6,-6c0,-2.304 1.352,-4.432 3.444,-5.421l0.544,-0.257l0.028,-0.601c0.147,-3.208 2.776,-5.721 5.984,-5.721c0.273,0 0.561,0.024 0.906,0.077l1.026,0.156l0.117,-1.031c0.402,-3.536 3.39,-6.202 6.951,-6.202M20,1c-4.109,0 -7.491,3.1 -7.944,7.088c-0.346,-0.052 -0.696,-0.088 -1.056,-0.088c-3.756,0 -6.813,2.961 -6.984,6.675c-2.371,1.121 -4.016,3.528 -4.016,6.325c0,3.866 3.134,7 7,7h25c4.418,0 8,-3.582 8,-8c0,-2.961 -1.613,-5.54 -4.004,-6.923c0,-0.026 0.004,-0.051 0.004,-0.077c0,-4.418 -3.582,-8 -8,-8c-0.351,0 -0.695,0.03 -1.034,0.074c-1.373,-2.43 -3.976,-4.074 -6.966,-4.074z" fill="#f0f9ff"></path><path d="M31.998,26l-0.998,0.002h-24c-2.757,0 -5,-2.243 -5,-5c0,-0.001 0,-0.001 0,-0.002h-1c0,0.001 0,0.001 0,0.002c0,3.308 2.692,6 6,6h24l1,-0.002c3.86,0 7,-3.14 7,-7h-1c0,3.308 -2.692,6 -6.002,6z" fill="#f0f9ff"></path><g fill="#ffeea3"><path d="M19.77,29.5h-5.02l4.583,-11h6.813l-4.5,8h4.276l-10.151,11.997z"></path><path d="M25.29,19l-3.662,6.51l-0.838,1.49h1.71h2.344l-7.196,8.504l2.266,-5.098l0.625,-1.406h-1.539h-3.5l4.167,-10h5.623M27,18h-8l-5,12h5l-4,9h1l11,-13h-4.5l4.5,-8z"></path></g></g></g></svg>